<svg width="150" height="150" viewBox="0 0 150 150" fill="none" xmlns="http://www.w3.org/2000/svg">
<path d="M75.0134 71.1736C75.0134 71.1736 47.281 42.3529 47.281 27.1724C47.5061 19.8886 50.5264 12.9794 55.6997 7.90775C60.873 2.83594 67.795 0 75.0008 0C82.2051 0 89.1271 2.83594 94.3004 7.90775C99.4737 12.9794 102.494 19.8886 102.719 27.1724C102.719 42.3529 75.0134 71.1736 75.0134 71.1736ZM47.281 122.82C47.5061 130.103 50.5264 137.013 55.6997 142.085C60.873 147.156 67.795 149.993 75.0008 149.993C82.2051 149.993 89.1271 147.156 94.3004 142.085C99.4737 137.013 102.494 130.103 102.719 122.82C102.719 107.612 75.0134 78.8187 75.0134 78.8187C75.0134 78.8187 47.281 107.612 47.281 122.82ZM122.294 46.9454C107.26 46.9454 78.7932 74.9961 78.7932 74.9961C78.7932 74.9961 107.314 102.992 122.294 102.992C129.643 102.992 136.69 100.039 141.886 94.784C147.081 89.5287 150 82.4009 150 74.9686C150 67.5365 147.081 60.4087 141.886 55.1533C136.69 49.8978 129.643 46.9454 122.294 46.9454ZM27.7056 46.9454C20.3571 46.9454 13.3098 49.8978 8.11432 55.1533C2.91883 60.4087 0 67.5365 0 74.9686C0 82.4009 2.91883 89.5287 8.11432 94.784C13.3098 100.039 20.3571 102.992 27.7056 102.992C42.7403 102.992 71.2068 74.9961 71.2068 74.9961C71.2068 74.9961 42.7403 46.9454 27.6517 46.9454H27.7056Z" fill="#E6007E"/>
</svg>
